<svg width="133" height="74" viewBox="0 0 133 74" fill="none" xmlns="http://www.w3.org/2000/svg">
<path fill-rule="evenodd" clip-rule="evenodd" d="M7.2395 0H125.76C129.759 0 133 3.27495 133 7.31638V66.6139C133 70.6554 129.759 73.9303 125.76 73.9303H7.2395C3.30949 74 0 70.725 0 66.6836V7.31638C0 3.27495 3.24054 0 7.2395 0Z" fill="#FF4600"/>
<path d="M14.8237 15.887V13.2392H21.6495C21.6495 13.3089 21.6495 13.4482 21.6495 13.5179C21.6495 13.5876 21.6495 13.7966 21.6495 13.936C21.6495 16.0264 21.0979 17.6987 19.9258 18.8833C18.7537 20.0678 17.1679 20.6252 15.0306 20.6252C13.9963 20.6252 13.1 20.4859 12.2726 20.1375C11.4453 19.8588 10.7558 19.371 10.1353 18.7439C9.51474 18.1865 9.10105 17.4897 8.75632 16.6535C8.41158 15.887 8.27368 14.9812 8.27368 14.145C8.27368 13.2392 8.41158 12.403 8.75632 11.6365C9.10105 10.8701 9.58369 10.1733 10.2042 9.54615C10.8247 8.91903 11.5832 8.50095 12.4105 8.15255C13.2379 7.87383 14.1342 7.66479 15.0995 7.66479C16.3406 7.66479 17.4437 7.87383 18.409 8.36159C19.3743 8.84935 20.1327 9.54615 20.8222 10.5217L17.7885 11.9153C17.4437 11.4275 17.03 11.0791 16.6163 10.8701C16.1337 10.661 15.6511 10.5217 15.0995 10.5217C14.0653 10.5217 13.2379 10.8701 12.6863 11.4972C12.0658 12.194 11.79 13.0998 11.79 14.2147C11.79 15.3993 12.0658 16.3051 12.6863 17.0019C13.2379 17.6987 14.0653 18.0471 15.0995 18.0471C15.9958 18.0471 16.6853 17.8381 17.3058 17.42C17.8574 17.0019 18.2021 16.4445 18.34 15.7477H14.8237V15.887Z" fill="white"/>
<path d="M23.718 20.4162V8.08289H27.3722C28.8201 8.08289 29.7854 8.15257 30.337 8.29192C30.8886 8.43128 31.3712 8.64032 31.7849 8.91904C32.2675 9.26744 32.6123 9.68552 32.8191 10.1733C33.0949 10.661 33.1638 11.2882 33.1638 11.9153C33.1638 12.8908 32.957 13.6573 32.4054 14.2147C31.9228 14.8418 31.2333 15.1902 30.268 15.3993L33.7154 20.3465H29.7854L26.8896 15.5386V20.3465H23.718V20.4162ZM26.9586 13.8663H27.5791C28.3375 13.8663 28.8891 13.727 29.2338 13.5179C29.5786 13.2392 29.7165 12.8908 29.7165 12.3334C29.7165 11.7062 29.5786 11.2882 29.2338 11.0094C28.8891 10.7307 28.3375 10.5914 27.5791 10.5914H26.8896V13.8663H26.9586Z" fill="white"/>
<path d="M35.0254 8.08289H38.4728V14.0754C38.4728 14.9812 38.4728 15.6083 38.5417 15.9567C38.6107 16.3051 38.6796 16.6535 38.8175 16.9322C38.9554 17.2109 39.1622 17.4897 39.507 17.629C39.8517 17.7684 40.2654 17.9077 40.748 17.9077C41.2307 17.9077 41.6444 17.8381 41.9202 17.629C42.2649 17.4897 42.4717 17.2109 42.6096 16.9322C42.7475 16.6535 42.8165 16.3748 42.8165 15.9567C42.8854 15.5386 42.8854 14.9115 42.8854 14.0754V13.2392V8.08289H46.3328V14.5631C46.3328 15.887 46.2639 16.9322 46.057 17.5593C45.8502 18.1865 45.5744 18.7439 45.2296 19.2317C44.816 19.7194 44.1954 20.0678 43.437 20.3465C42.6786 20.6253 41.7823 20.6949 40.6791 20.6949C39.5759 20.6949 38.6796 20.5556 37.9212 20.3465C37.1628 20.0678 36.5422 19.7194 36.1286 19.2317C35.7149 18.7439 35.4391 18.2561 35.3012 17.5593C35.1633 16.9322 35.0254 15.887 35.0254 14.5631V13.3089V8.08289Z" fill="white"/>
<path d="M52.2623 20.4162H49.0217V8.08289H52.676C54.1239 8.08289 55.0891 8.15257 55.6407 8.29192C56.1923 8.43128 56.6749 8.64032 57.0886 8.98872C57.5712 9.33712 57.916 9.82488 58.1918 10.3823C58.3986 10.9398 58.5365 11.5669 58.5365 12.2637C58.5365 12.9605 58.3986 13.6573 58.1918 14.2147C57.916 14.7722 57.5712 15.2599 57.0886 15.6083C56.7439 15.887 56.3302 16.0961 55.8475 16.1657C55.3649 16.3051 54.6065 16.3748 53.5033 16.3748H52.8828H52.2623V20.4162ZM52.2623 13.5876H52.9517C53.7791 13.5876 54.3997 13.4482 54.6754 13.2392C55.0202 13.0302 55.1581 12.6121 55.1581 12.1243C55.1581 11.6366 55.0202 11.2185 54.6754 11.0094C54.3307 10.8004 53.7791 10.661 52.9517 10.661H52.2623V13.5876Z" fill="white"/>
<path d="M73.2914 14.2844C73.2914 15.1902 73.0846 16.0264 72.8088 16.7928C72.4641 17.5593 71.9814 18.2561 71.3609 18.8832C70.7404 19.5104 69.9819 19.9284 69.1546 20.2768C68.3272 20.6252 67.4309 20.7646 66.5346 20.7646C65.6382 20.7646 64.7419 20.6252 63.9145 20.2768C63.0872 19.9284 62.3288 19.5104 61.7082 18.8832C61.0877 18.2561 60.5361 17.5593 60.1914 16.7928C59.8466 16.0264 59.7087 15.1902 59.7087 14.2844C59.7087 13.3785 59.8466 12.5424 60.1914 11.7759C60.5361 11.0094 61.0187 10.3126 61.7082 9.68549C62.3288 9.05838 63.0872 8.6403 63.9145 8.2919C64.7419 7.9435 65.6382 7.80414 66.5346 7.80414C67.4309 7.80414 68.3272 7.9435 69.1546 8.2919C69.9819 8.6403 70.7404 9.05838 71.3609 9.68549C71.9814 10.3126 72.4641 11.0094 72.8088 11.7759C73.1535 12.5424 73.2914 13.3785 73.2914 14.2844ZM66.5346 17.9077C67.4998 17.9077 68.2582 17.5593 68.9477 16.8625C69.5683 16.1657 69.913 15.3296 69.913 14.2844C69.913 13.2392 69.5683 12.403 68.9477 11.7062C68.3272 11.0094 67.4998 10.661 66.6035 10.661C65.6382 10.661 64.8798 11.0094 64.1903 11.7062C63.5698 12.403 63.2251 13.2392 63.2251 14.2844C63.2251 15.3296 63.5009 16.2354 64.1214 16.8625C64.7419 17.5593 65.5003 17.9077 66.5346 17.9077Z" fill="white"/>
<path d="M51.0213 64.3842V34.7005H41.0239V25.5028H73.2914V34.7005H63.2251V64.3842H51.0213Z" fill="white"/>
<path d="M122.382 25.9906V37.6271C120.727 36.0245 119.073 34.8399 117.349 34.0734C115.694 33.307 113.901 32.9586 112.04 32.9586C108.524 32.9586 105.697 34.0038 103.49 36.0942C101.353 38.1845 100.25 40.9021 100.25 44.2467C100.25 47.3823 101.353 49.9604 103.559 51.9812C105.766 54.0716 108.593 55.0471 112.04 55.0471C113.901 55.0471 115.694 54.6987 117.349 53.9322C119.004 53.1657 120.658 51.9812 122.382 50.3785V62.0151C120.452 62.8512 118.521 63.4086 116.59 63.8267C114.66 64.2448 112.729 64.4538 110.799 64.4538C108.317 64.4538 106.11 64.1751 104.042 63.6874C101.974 63.1996 100.043 62.4331 98.3193 61.3879C95.0099 59.4369 92.3898 56.9981 90.6662 54.0019C88.8735 51.0056 88.0461 47.7307 88.0461 44.0377C88.0461 41.0414 88.5977 38.3239 89.7009 35.8851C90.8041 33.4463 92.5277 31.2166 94.7341 29.2655C96.8714 27.3842 99.2157 25.9209 101.905 25.0151C104.525 24.1092 107.489 23.6215 110.799 23.6215C112.729 23.6215 114.729 23.8305 116.59 24.2486C118.521 24.597 120.452 25.2241 122.382 25.9906Z" fill="white"/>
<path d="M83.4265 63.8268L81.427 61.4577C80.3239 62.5028 79.2207 63.2693 77.9797 63.6874C76.8076 64.1752 75.4286 64.3842 73.9807 64.3842C71.9812 64.3842 70.3265 63.7571 69.0165 62.5725C67.7065 61.388 67.0859 59.855 67.0859 57.9737C67.0859 56.5104 67.4996 55.2561 68.327 54.1413C69.1544 53.0264 70.5333 51.9812 72.326 51.0057C71.6365 50.1695 71.0849 49.403 70.7402 48.5669C70.3954 47.8004 70.2575 47.0339 70.2575 46.2674C70.2575 44.7345 70.8781 43.4106 72.0502 42.4351C73.2223 41.3899 74.7391 40.9021 76.5318 40.9021C78.6002 40.9021 80.2549 41.3899 81.427 42.4351C82.5992 43.4803 83.2197 44.8042 83.2197 46.5462C83.2197 47.661 82.8749 48.7062 82.2544 49.6818C81.6339 50.6573 80.6686 51.5631 79.3586 52.3296L82.0476 55.1865C82.5992 54.7684 83.0818 54.2806 83.6334 53.7232C84.185 53.2354 84.6676 52.6083 85.2192 51.9812L88.4597 55.3258C87.9081 56.0226 87.4255 56.5801 86.8739 57.1375C86.3913 57.6949 85.8397 58.1827 85.3571 58.6008L90.2523 63.7571H83.4265V63.8268ZM78.3244 58.3221L74.6702 54.2806C73.9807 54.9077 73.4291 55.5349 73.0844 56.0226C72.7396 56.5801 72.6017 57.0678 72.6017 57.5556C72.6017 58.2524 72.8086 58.8098 73.2912 59.2279C73.7739 59.7157 74.3254 59.9247 75.0149 59.9247C75.4976 59.9247 76.0491 59.7853 76.6007 59.5066C77.1523 59.2976 77.7039 58.8795 78.3244 58.3221ZM76.7386 49.6818L77.497 49.0546C77.9797 48.6366 78.3933 48.2185 78.6691 47.7307C78.9449 47.3126 79.0828 46.8946 79.0828 46.4765C79.0828 45.919 78.876 45.501 78.5312 45.1526C78.1865 44.8042 77.7039 44.6648 77.0833 44.6648C76.4628 44.6648 75.9112 44.8739 75.5665 45.2223C75.2218 45.5706 75.0149 46.0584 75.0149 46.6855C75.0149 46.9642 75.0839 47.243 75.2218 47.5914C75.3597 48.0094 75.5665 48.2882 75.7733 48.5669L76.7386 49.6818Z" fill="white"/>
</svg>
