<?xml version="1.0" encoding="UTF-8"?> <svg xmlns="http://www.w3.org/2000/svg" width="300" height="67" viewBox="0 0 300 67" fill="none"><path d="M20.5103 17.3783H30.4439C33.5385 17.3783 36.2741 18.7471 36.2741 21.658C36.2741 23.45 35.4123 25.0945 33.6887 25.6651C35.3209 26.2133 36.3753 27.4091 36.3753 29.3004C36.3753 32.41 33.3851 33.7308 30.2154 33.7308H20.5103V17.3783ZM23.0434 19.2344V24.9695H30.47C32.5233 24.9695 33.8911 23.9725 33.8911 21.9817C33.8911 20.0904 32.396 19.2184 30.3198 19.2184L23.0434 19.2344ZM30.4961 32.1023C33.2088 32.1023 33.8911 30.3359 33.8911 29.1402C33.8911 27.2488 32.5233 26.3544 30.47 26.3544H23.0434V32.1023H30.4961Z" fill="#1D38BD"></path><path d="M79.4199 33.7308V17.327H89.6604C92.6996 17.327 95.1838 18.6093 95.1838 21.783C95.1838 24.8701 93.0032 26.5371 90.4439 26.5916H88.6452L95.1087 33.734H92.3829L86.0859 26.5884H81.7279V33.7308H79.4199ZM81.7279 25.1683H89.6343C91.433 25.1683 92.9281 24.1232 92.9281 22.1805C92.9281 20.0904 91.4852 19.196 89.6343 19.196H81.7279V25.1683Z" fill="#1D38BD"></path><path d="M125.315 31.692C125.886 31.2347 126.401 30.7129 126.849 30.1372C127.142 29.8173 127.406 29.473 127.639 29.1081C128.346 27.9871 128.715 26.6921 128.703 25.3735C128.733 23.7658 128.272 22.1862 127.381 20.8373C126.477 19.4941 125.21 18.425 123.722 17.7502C122.789 17.3192 121.801 17.0182 120.784 16.8558C120.617 16.8269 120.457 16.8013 120.281 16.7789C120.105 16.7564 119.954 16.734 119.775 16.718C119.384 16.6781 118.992 16.6578 118.6 16.657H118.528C118.394 16.657 118.27 16.657 118.136 16.6763C117.927 16.6763 117.718 16.6763 117.513 16.7051C116.061 16.7905 114.639 17.1451 113.321 17.7502C111.831 18.4245 110.563 19.4936 109.658 20.8373C108.948 21.907 108.515 23.1306 108.395 24.4021C108.366 24.6874 108.34 24.9727 108.336 25.2709C108.336 25.3093 108.336 25.3478 108.336 25.3863V25.4055C108.331 25.7 108.345 25.9945 108.379 26.2871C108.497 27.5585 108.946 28.7786 109.685 29.8294C110.447 30.8882 111.454 31.7549 112.623 32.3588C113.757 33.0506 115.027 33.5006 116.35 33.6795L117.428 33.7308L118.841 33.7949H119.014H129.029V31.692H125.315ZM118.518 32.4357C114.134 32.4357 110.586 29.3229 110.586 25.3414C110.586 21.2861 114.134 18.2888 118.57 18.2888C122.876 18.2888 126.349 21.1258 126.349 25.2837C126.349 29.3229 122.876 32.4357 118.518 32.4357Z" fill="#1D38BD"></path><path d="M141.826 27.6335V17.4777H144.336V27.9573C144.336 30.6437 146.948 32.4614 149.657 32.4614C152.367 32.4614 154.779 30.4706 154.779 27.9573V17.4777H157.286V27.6335C157.286 30.7431 154.472 33.9552 149.556 33.9552C144.565 33.9552 141.826 30.7174 141.826 27.6335Z" fill="#1D38BD"></path><path d="M172.613 33.7308V17.3527H184.44V19.196H174.907V25.0945H183.627V26.4634H174.917V32.0862H184.44V33.7308H172.613Z" fill="#1D38BD"></path><path d="M199.038 33.7308V17.327H209.279C212.318 17.327 214.799 18.5933 214.799 21.799C214.799 24.8862 212.618 26.5532 210.059 26.6076H208.27L214.733 33.75H211.995L205.704 26.5884H201.346V33.7308H199.038ZM201.346 25.1683H209.249C211.048 25.1683 212.543 24.1232 212.543 22.1805C212.543 20.0904 211.1 19.196 209.249 19.196H201.346V25.1683Z" fill="#1D38BD"></path><path d="M228.183 25.4183C228.183 20.5648 232.662 16.6699 238.414 16.6699C243.94 16.6699 248.501 20.2763 248.501 25.3254C248.501 30.3263 244.015 33.9809 238.381 33.9809C232.747 33.9809 228.183 30.3199 228.183 25.4183ZM238.303 32.1857C242.435 32.1857 245.931 29.6211 245.931 25.319C245.931 21.1098 242.612 18.4971 238.505 18.4971C234.147 18.4747 230.752 21.3599 230.752 25.4664C230.752 29.573 234.209 32.1857 238.303 32.1857Z" fill="#1D38BD"></path><path d="M264.307 28.6529C264.284 31.5894 267.222 32.3107 270.695 32.3107C273.862 32.3107 276.855 31.4387 276.855 29.2492C276.855 24.8445 261.901 28.7267 261.901 21.8568C261.901 18.5965 265.753 17.1283 270.594 17.1283C275.435 17.1283 279.336 18.3497 279.287 22.6293H276.702C276.702 19.5935 274.015 18.8466 270.594 18.8466C267.656 18.8466 264.614 19.5935 264.614 21.9818C264.614 26.8353 279.49 23.2641 279.49 29.2749C279.49 32.6601 274.877 34.0835 270.695 34.0835C263.902 34.0835 261.519 31.5958 261.519 28.6593L264.307 28.6529Z" fill="#1D38BD"></path><path d="M76.9945 39.4948H75.6528V49.6634H76.9945V39.4948Z" fill="#1D38BD"></path><path d="M91.4462 47.1084L85.4494 39.4948H84.4211V49.6666H85.7628V42.0561L91.7596 49.6666H92.7878V39.4948H91.4462V47.1084Z" fill="#1D38BD"></path><path d="M105.326 46.432L101.292 39.4948H100.214V49.6666H101.556V42.5947L104.935 48.3779H105.718L109.097 42.5755V49.6666H110.439V39.4948H109.361L105.326 46.432Z" fill="#1D38BD"></path><path d="M124.87 40.123C124.044 39.6853 123.12 39.4562 122.181 39.4562C121.242 39.4562 120.317 39.6853 119.491 40.123C118.696 40.5564 118.036 41.1935 117.581 41.9663C117.123 42.7649 116.883 43.6658 116.883 44.5822C116.883 45.4986 117.123 46.3996 117.581 47.1981C118.031 47.9719 118.687 48.6111 119.478 49.0478C120.304 49.4855 121.228 49.7147 122.168 49.7147C123.107 49.7147 124.031 49.4855 124.857 49.0478C125.653 48.6165 126.313 47.9803 126.767 47.2077C127.225 46.4092 127.466 45.5083 127.466 44.5918C127.466 43.6754 127.225 42.7745 126.767 41.976C126.317 41.2012 125.662 40.5609 124.87 40.123ZM122.181 48.4067C121.473 48.4164 120.775 48.244 120.157 47.9066C119.568 47.5858 119.079 47.1137 118.743 46.5409C118.403 45.9439 118.224 45.2712 118.224 44.587C118.224 43.9029 118.403 43.2302 118.743 42.6331C119.08 42.0611 119.569 41.5892 120.157 41.2675C120.78 40.9414 121.475 40.7708 122.181 40.7708C122.887 40.7708 123.582 40.9414 124.205 41.2675C124.792 41.5901 125.28 42.0617 125.618 42.6331C125.956 43.2308 126.134 43.9033 126.134 44.587C126.134 45.2708 125.956 45.9432 125.618 46.5409C125.281 47.113 124.793 47.5849 124.205 47.9066C123.586 48.2436 122.888 48.416 122.181 48.4067Z" fill="#1D38BD"></path><path d="M140.889 44.3483C140.989 44.2651 141.083 44.1751 141.17 44.079C141.59 43.5914 141.81 42.9672 141.787 42.3286C141.806 41.9145 141.72 41.5021 141.537 41.1288C141.353 40.7555 141.078 40.4329 140.735 40.1904C139.963 39.6908 139.048 39.4471 138.124 39.4948H133.913V49.6666H138.411C139.639 49.6666 140.589 49.4262 141.245 48.9517C141.591 48.6989 141.868 48.3663 142.053 47.9834C142.237 47.6005 142.323 47.1789 142.302 46.7558C142.333 46.2626 142.215 45.7716 141.964 45.3437C141.712 44.9157 141.339 44.5696 140.889 44.3483ZM138.45 48.3618H135.264V45.1561H138.45C139.342 45.1561 140.004 45.3004 140.409 45.5825C140.594 45.7143 140.74 45.8914 140.834 46.0961C140.927 46.3009 140.964 46.5261 140.941 46.7494C140.948 47.445 140.696 48.3618 138.45 48.3618ZM139.936 43.4314C139.412 43.7501 138.8 43.8992 138.186 43.8578H135.264V40.8027H138.186C138.8 40.7614 139.412 40.9093 139.936 41.2259C140.096 41.3634 140.224 41.5329 140.312 41.7231C140.4 41.9133 140.445 42.1198 140.445 42.3286C140.445 42.5375 140.4 42.744 140.312 42.9342C140.224 43.1244 140.096 43.2939 139.936 43.4314Z" fill="#1D38BD"></path><path d="M150.157 39.4948H148.815V49.6634H150.157V39.4948Z" fill="#1D38BD"></path><path d="M158.925 39.4948H157.583V49.6666H164.455V48.3618H158.925V39.4948Z" fill="#1D38BD"></path><path d="M171.591 39.4948H170.249V49.6634H171.591V39.4948Z" fill="#1D38BD"></path><path d="M181.877 39.4948L177.069 49.6666H178.564L179.869 46.9193H184.854L186.16 49.6666H187.655L182.83 39.4948H181.877ZM180.48 45.6145L182.354 41.6362L184.227 45.6145H180.48Z" fill="#1D38BD"></path><path d="M200.266 45.1785C200.75 44.5608 201.002 43.7972 200.977 43.0179C201.004 42.5217 200.913 42.0263 200.711 41.5706C200.51 41.115 200.203 40.7116 199.815 40.3924C199.074 39.7897 198.059 39.4819 196.796 39.4819H193.113V49.6538H194.458V46.5282H196.796C197.077 46.5304 197.358 46.5154 197.638 46.4833L199.965 49.6538H201.627L199.015 46.1082C199.5 45.8987 199.929 45.5803 200.266 45.1785ZM199.636 43.0179C199.659 43.3222 199.61 43.6277 199.493 43.9103C199.376 44.193 199.193 44.445 198.96 44.6464C198.483 45.0375 197.765 45.2362 196.822 45.2362H194.458V40.8027H196.822C197.765 40.8027 198.483 41.0015 198.96 41.3926C199.193 41.5935 199.376 41.8449 199.493 42.127C199.61 42.4091 199.659 42.7141 199.636 43.0179Z" fill="#1D38BD"></path><path d="M208.926 39.4948H207.584V49.6634H208.926V39.4948Z" fill="#1D38BD"></path><path d="M220.162 39.4948H219.209L214.404 49.6666H215.896L217.201 46.9193H222.186L223.492 49.6666H224.984L220.162 39.4948ZM217.812 45.6145L219.695 41.6362L221.572 45.6145H217.812Z" fill="#1D38BD"></path><path d="M67.5996 27.018L56.4157 13.7847L45.8521 36.9814H59.086L67.5735 27.0436L67.5996 27.018ZM56.4483 18.4073L57.3526 26.8833H55.1099L56.4483 18.4073ZM55.4951 18.1445L54.0719 27.159L48.3461 33.8622L55.4951 18.1445ZM47.7944 36.0037L54.7639 27.8451H57.4538L58.3254 36.0037H47.7944ZM59.2198 35.308L58.4331 27.8451H65.6148L59.2198 35.308ZM58.3221 26.8833L57.1796 16.2018L66.1992 26.8833H58.3221Z" fill="#1D38BD"></path></svg> 