<?xml version="1.0" encoding="iso-8859-1"?>
<!-- Generator: Adobe Illustrator 23.1.1, SVG Export Plug-In . SVG Version: 6.00 Build 0)  -->
<svg version="1.1" id="Capa_1" xmlns="http://www.w3.org/2000/svg" xmlns:xlink="http://www.w3.org/1999/xlink" x="0px" y="0px"
	 width="70px" height="70px" viewBox="0 0 70 70" style="enable-background:new 0 0 70 70;" xml:space="preserve">
<g>
	<path style="fill:#FFFFFF;" d="M26.481,36.804c-1.29,0-2.39,0.709-2.39,3.367v7.621c0,2.658,1.1,3.367,2.39,3.367
		c1.292,0,2.39-0.709,2.39-3.367v-7.621C28.872,37.513,27.773,36.804,26.481,36.804 M33.654,47.084c0,6.115-3.777,8.152-7.172,8.152
		c-3.395,0-7.172-2.038-7.172-8.152v-6.203c0-6.115,3.777-8.152,7.172-8.152c3.395,0,7.172,2.038,7.172,8.152V47.084z"/>
	<path style="fill:#FFFFFF;" d="M48.618,49.432c-0.24,2.748-2.821,5.804-6.933,5.804c-4.447,0-6.981-3.588-6.981-6.203
		c0-0.665,0.24-0.886,0.957-0.886h2.773c0.718,0,0.957,0.222,0.957,0.886c0,1.328,1.195,2.126,2.295,2.126
		c1.051,0,2.247-0.797,2.295-2.126c0.191-3.989-8.128-4.741-8.511-10.369c-0.24-3.412,2.869-5.937,6.216-5.937
		c3.442,0,6.359,2.747,6.359,6.071c0,0.664-0.24,0.886-0.957,0.886h-2.486c-0.669,0-0.956-0.177-0.956-1.064
		c0-1.108-0.814-1.905-1.912-1.905c-1.052,0-1.865,0.797-1.865,1.772C39.821,41.767,49.144,43.361,48.618,49.432"/>
	<path style="fill:#FFFFFF;" d="M59.739,47.615v-3.544c-2.582,1.063-4.781,1.551-4.781,3.766v0.355c0,0.665,0,2.969,2.39,2.969
		C59.404,51.161,59.691,49.477,59.739,47.615 M64.52,52.002c0.047,0.93,0.24,1.639,0.382,2.171c0.143,0.665-0.238,0.886-0.957,0.886
		h-2.678c-0.669,0-0.908-0.133-1.051-1.33c0,0-1.53,1.507-3.969,1.507c-3.442,0-6.072-1.949-6.072-5.894v-1.949
		c0-4.874,4.542-5.406,7.411-6.38c1.434-0.488,2.152-1.152,2.152-2.216c0-1.019-0.861-1.994-2.152-1.994
		c-1.195,0-2.343,0.932-2.247,2.615c0.047,0.664-0.192,0.886-0.957,0.886h-2.677c-0.718,0-0.908-0.222-0.956-0.886
		c-0.143-3.678,2.917-6.691,6.837-6.691c3.585,0,6.933,2.569,6.933,6.824L64.52,52.002L64.52,52.002z"/>
	<path style="fill:#FFFFFF;" d="M17.07,14.687l-4.079-4.326c-0.133-0.123-0.333-0.161-0.508-0.094
		c-0.174,0.066-0.288,0.224-0.288,0.399v44.138c0,0.238,0.209,0.432,0.467,0.432h4.078c0.258,0,0.467-0.193,0.467-0.432V14.992
		C17.206,14.878,17.156,14.768,17.07,14.687"/>
	<path style="fill:#FFFFFF;" d="M5.205,5.625l4.079-4.326c0.133-0.123,0.333-0.161,0.508-0.094c0.174,0.066,0.288,0.224,0.288,0.399
		v53.2c0,0.238-0.209,0.432-0.467,0.432H5.535c-0.258,0-0.467-0.193-0.467-0.432V5.93C5.068,5.816,5.118,5.706,5.205,5.625"/>
	<path style="fill:#FFFFFF;" d="M67.5,58.681c0,0.188-0.108,0.339-0.242,0.339H2.742c-0.134,0-0.242-0.152-0.242-0.339
		c0-0.188,0.108-0.339,0.242-0.339h64.516C67.392,58.342,67.5,58.493,67.5,58.681"/>
	<g>
		<path style="fill:#FFFFFF;" d="M4.666,68.398v-4.702c0-0.206,0.11-0.322,0.294-0.322h2.819c0.183,0,0.294,0.107,0.294,0.313v0.288
			c0,0.206-0.11,0.321-0.294,0.321H5.658v1.302h1.593c0.183,0,0.294,0.107,0.294,0.313v0.247c0,0.206-0.11,0.322-0.294,0.322H5.658
			v1.326h2.136c0.183,0,0.286,0.107,0.286,0.313v0.288c0,0.206-0.103,0.322-0.286,0.322H4.96
			C4.777,68.729,4.666,68.604,4.666,68.398z"/>
		<path style="fill:#FFFFFF;" d="M9.655,68.398v-4.702c0-0.206,0.11-0.322,0.294-0.322h1.732c1.527,0,2.503,1.071,2.503,2.669
			c0,1.614-0.976,2.685-2.503,2.685H9.949C9.765,68.729,9.655,68.604,9.655,68.398z M11.651,67.806c0.91,0,1.519-0.675,1.519-1.755
			c0-1.087-0.61-1.755-1.519-1.755h-1.006v3.508L11.651,67.806L11.651,67.806z"/>
		<path style="fill:#FFFFFF;" d="M15.78,68.398v-4.702c0-0.206,0.103-0.322,0.286-0.322h0.426c0.183,0,0.279,0.116,0.279,0.322
			v4.702c0,0.206-0.095,0.329-0.279,0.329h-0.426C15.883,68.729,15.78,68.604,15.78,68.398z"/>
		<path style="fill:#FFFFFF;" d="M18.648,68.398v-4.702c0-0.206,0.11-0.322,0.294-0.322h2.73c0.183,0,0.294,0.107,0.294,0.313v0.288
			c0,0.206-0.11,0.321-0.294,0.321h-2.033v1.359h1.476c0.183,0,0.294,0.116,0.294,0.322v0.246c0,0.206-0.11,0.313-0.294,0.313
			h-1.476v1.861c0,0.206-0.095,0.329-0.279,0.329h-0.426C18.751,68.729,18.648,68.604,18.648,68.398z"/>
		<path style="fill:#FFFFFF;" d="M23.395,68.398v-4.702c0-0.206,0.103-0.322,0.286-0.322h0.426c0.183,0,0.279,0.116,0.279,0.322
			v4.702c0,0.206-0.095,0.329-0.279,0.329h-0.426C23.498,68.729,23.395,68.604,23.395,68.398z"/>
		<path style="fill:#FFFFFF;" d="M25.969,66.052c0-1.59,1.123-2.775,2.561-2.775c0.734,0,1.38,0.322,1.828,0.848
			c0.132,0.148,0.125,0.322-0.015,0.445l-0.264,0.255c-0.14,0.124-0.264,0.107-0.404-0.025c-0.301-0.321-0.69-0.519-1.138-0.519
			c-0.874,0-1.556,0.741-1.556,1.771s0.683,1.771,1.556,1.771c0.448,0,0.844-0.198,1.138-0.519c0.14-0.14,0.264-0.157,0.404-0.026
			l0.264,0.247c0.14,0.132,0.147,0.304,0.015,0.445c-0.448,0.535-1.094,0.857-1.835,0.857
			C27.092,68.827,25.969,67.641,25.969,66.052z"/>
		<path style="fill:#FFFFFF;" d="M36.037,68.729h-0.573c-0.183,0-0.22-0.116-0.301-0.322l-0.257-0.691h-2.173l-0.264,0.691
			c-0.074,0.206-0.11,0.322-0.301,0.322h-0.536c-0.183,0-0.279-0.116-0.191-0.322l2.018-4.801c0.074-0.173,0.176-0.28,0.345-0.28
			h0.066c0.169,0,0.279,0.107,0.352,0.28l2.012,4.801C36.316,68.612,36.228,68.729,36.037,68.729z M34.606,66.916l-0.771-2.075
			l-0.793,2.075H34.606z"/>
		<path style="fill:#FFFFFF;" d="M37.2,66.052c0-1.59,1.124-2.775,2.561-2.775c0.735,0,1.381,0.322,1.828,0.848
			c0.132,0.148,0.125,0.322-0.014,0.445l-0.265,0.255c-0.139,0.124-0.264,0.107-0.403-0.025c-0.301-0.321-0.689-0.519-1.138-0.519
			c-0.873,0-1.555,0.741-1.555,1.771s0.683,1.771,1.555,1.771c0.449,0,0.845-0.198,1.138-0.519c0.14-0.14,0.265-0.157,0.403-0.026
			l0.265,0.247c0.14,0.132,0.147,0.304,0.014,0.445c-0.447,0.535-1.093,0.857-1.835,0.857C38.324,68.827,37.2,67.641,37.2,66.052z"
			/>
		<path style="fill:#FFFFFF;" d="M43.179,68.398v-4.702c0-0.206,0.104-0.322,0.286-0.322h0.426c0.183,0,0.279,0.116,0.279,0.322
			v4.702c0,0.206-0.095,0.329-0.279,0.329h-0.426C43.283,68.729,43.179,68.604,43.179,68.398z"/>
		<path style="fill:#FFFFFF;" d="M45.754,66.052c0-1.59,1.123-2.775,2.591-2.775c1.476,0,2.591,1.185,2.591,2.775
			c0,1.581-1.116,2.775-2.591,2.775C46.877,68.827,45.754,67.641,45.754,66.052z M49.93,66.052c0-1.038-0.697-1.771-1.585-1.771
			c-0.888,0-1.578,0.733-1.578,1.771c0,1.029,0.689,1.771,1.578,1.771C49.233,67.823,49.93,67.081,49.93,66.052z"/>
		<path style="fill:#FFFFFF;" d="M56.688,63.696v4.727c0,0.239-0.155,0.346-0.331,0.346h-0.059c-0.169,0-0.294-0.107-0.433-0.297
			l-2.363-3.162v3.089c0,0.206-0.095,0.329-0.279,0.329h-0.419c-0.183,0-0.286-0.124-0.286-0.329V63.68
			c0-0.247,0.155-0.346,0.331-0.346h0.059c0.169,0,0.294,0.107,0.433,0.297l2.363,3.154v-3.088c0-0.206,0.095-0.322,0.279-0.322
			h0.419C56.584,63.375,56.688,63.491,56.688,63.696z"/>
		<path style="fill:#FFFFFF;" d="M58.563,68.398v-4.702c0-0.206,0.11-0.322,0.294-0.322h2.819c0.183,0,0.294,0.107,0.294,0.313
			v0.288c0,0.206-0.11,0.321-0.294,0.321h-2.121v1.302h1.593c0.183,0,0.294,0.107,0.294,0.313v0.247c0,0.206-0.11,0.322-0.294,0.322
			h-1.593v1.326h2.136c0.183,0,0.286,0.107,0.286,0.313v0.288c0,0.206-0.103,0.322-0.286,0.322h-2.833
			C58.673,68.729,58.563,68.604,58.563,68.398z"/>
		<path style="fill:#FFFFFF;" d="M63.301,68.003c-0.132-0.148-0.176-0.313-0.029-0.478l0.169-0.222
			c0.132-0.157,0.278-0.198,0.426-0.041c0.301,0.379,0.822,0.61,1.234,0.61c0.528,0,0.859-0.255,0.859-0.626
			c0-0.535-0.535-0.601-1.182-0.848c-0.61-0.222-1.395-0.61-1.395-1.58c0-0.906,0.713-1.541,1.74-1.541
			c0.661,0,1.197,0.255,1.564,0.635c0.139,0.132,0.198,0.297,0.051,0.47l-0.169,0.222c-0.125,0.148-0.265,0.19-0.419,0.041
			c-0.257-0.255-0.587-0.461-1.013-0.461c-0.433,0-0.741,0.231-0.741,0.568c0,0.403,0.389,0.559,0.807,0.716
			c0.808,0.304,1.77,0.568,1.77,1.77c0,1.005-0.801,1.59-1.813,1.59C64.417,68.827,63.719,68.53,63.301,68.003z"/>
	</g>
</g>
</svg>
